# xmcd
#
# Track frame offsets:
#	150
#	6095
#	30960
#	40925
#	51927
#	60147
#	67740
#	75952
#	89157
#	96812
#	103020
#	113920
#	118802
#	130625
#	135325
#	154217
#	163417
#	176007
#	190460
#	195785
#	205725
#
# Disc length: 2784 seconds
#
# Revision: 2
# Processed by: cddbd v1.5.2PL0 Copyright (c) Steve Scherf et al.
# Submitted via: audiograbber 1.83.01
#
DISCID=0c0ade15
DTITLE=Bl‰sergruppe Bayr. Berufsj‰ger - St. Hubertusmesse
DYEAR=1990
DGENRE=National Folk
TTITLE0=Eingangsmarsch
TTITLE1=Einleitung
TTITLE2=Kyrie
TTITLE3=Gloria
TTITLE4=Credo
TTITLE5=Sanctus
TTITLE6=Wandlung
TTITLE7=Benedictus
TTITLE8=Agnus Dei
TTITLE9=Schluﬂmarsch
TTITLE10=Schiaﬂstatt Polka
TTITLE11=‹ber d' Alma
TTITLE12=Hermann Boarischer
TTITLE13=Seiser Alm Lied
TTITLE14=Auf'n Rauchnberg
TTITLE15=Da Verkehrte
TTITLE16=Auf der Feldalm
TTITLE17=Jaga Boarischer
TTITLE18=Da oane Summa
TTITLE19=Gratlspitz Marsch
TTITLE20=Boareibl Jodler
EXTD=
EXTT0=
EXTT1=
EXTT2=
EXTT3=
EXTT4=
EXTT5=
EXTT6=
EXTT7=
EXTT8=
EXTT9=
EXTT10=
EXTT11=
EXTT12=
EXTT13=
EXTT14=
EXTT15=
EXTT16=
EXTT17=
EXTT18=
EXTT19=
EXTT20=
PLAYORDER=
